<svg xmlns="http://www.w3.org/2000/svg" viewBox="0 0 18 18" shape-rendering="crispEdges"><rect x="7" y="5" width="4" height="1" fill="#20201e"/><rect x="5" y="6" width="2" height="1" fill="#20201e"/><rect x="7" y="6" width="1" height="1" fill="#c2c2bc"/><rect x="8" y="6" width="3" height="1" fill="#8c8c86"/><rect x="11" y="6" width="2" height="1" fill="#20201e"/><rect x="3" y="7" width="2" height="1" fill="#20201e"/><rect x="5" y="7" width="3" height="1" fill="#c2c2bc"/><rect x="8" y="7" width="5" height="1" fill="#8c8c86"/><rect x="13" y="7" width="2" height="1" fill="#20201e"/><rect x="3" y="8" width="1" height="1" fill="#20201e"/><rect x="4" y="8" width="4" height="1" fill="#c2c2bc"/><rect x="8" y="8" width="6" height="1" fill="#8c8c86"/><rect x="14" y="8" width="1" height="1" fill="#20201e"/><rect x="2" y="9" width="1" height="1" fill="#20201e"/><rect x="3" y="9" width="12" height="1" fill="#8c8c86"/><rect x="15" y="9" width="1" height="1" fill="#20201e"/><rect x="2" y="10" width="1" height="1" fill="#20201e"/><rect x="3" y="10" width="12" height="1" fill="#8c8c86"/><rect x="15" y="10" width="1" height="1" fill="#20201e"/><rect x="2" y="11" width="1" height="1" fill="#20201e"/><rect x="3" y="11" width="12" height="1" fill="#8c8c86"/><rect x="15" y="11" width="1" height="1" fill="#20201e"/><rect x="3" y="12" width="1" height="1" fill="#20201e"/><rect x="4" y="12" width="10" height="1" fill="#5a5a56"/><rect x="14" y="12" width="1" height="1" fill="#20201e"/><rect x="3" y="13" width="2" height="1" fill="#20201e"/><rect x="5" y="13" width="8" height="1" fill="#5a5a56"/><rect x="13" y="13" width="2" height="1" fill="#20201e"/><rect x="5" y="14" width="2" height="1" fill="#20201e"/><rect x="7" y="14" width="4" height="1" fill="#5a5a56"/><rect x="11" y="14" width="2" height="1" fill="#20201e"/><rect x="7" y="15" width="4" height="1" fill="#20201e"/></svg>